<svg width="500" height="400" viewBox="0 0 500 400" fill="none" xmlns="http://www.w3.org/2000/svg">
  <!-- City Building Background -->
  <rect x="60" y="100" width="380" height="250" rx="5" fill="#E2E8F0" />
  
  <!-- Windows -->
  <rect x="90" y="130" width="30" height="40" rx="2" fill="#BFDBFE" />
  <rect x="130" y="130" width="30" height="40" rx="2" fill="#BFDBFE" />
  <rect x="170" y="130" width="30" height="40" rx="2" fill="#BFDBFE" />
  <rect x="210" y="130" width="30" height="40" rx="2" fill="#BFDBFE" />
  <rect x="250" y="130" width="30" height="40" rx="2" fill="#BFDBFE" />
  <rect x="290" y="130" width="30" height="40" rx="2" fill="#BFDBFE" />
  <rect x="330" y="130" width="30" height="40" rx="2" fill="#BFDBFE" />
  <rect x="370" y="130" width="30" height="40" rx="2" fill="#BFDBFE" />
  
  <rect x="90" y="180" width="30" height="40" rx="2" fill="#BFDBFE" />
  <rect x="130" y="180" width="30" height="40" rx="2" fill="#BFDBFE" />
  <rect x="170" y="180" width="30" height="40" rx="2" fill="#BFDBFE" />
  <rect x="210" y="180" width="30" height="40" rx="2" fill="#BFDBFE" />
  <rect x="250" y="180" width="30" height="40" rx="2" fill="#BFDBFE" />
  <rect x="290" y="180" width="30" height="40" rx="2" fill="#BFDBFE" />
  <rect x="330" y="180" width="30" height="40" rx="2" fill="#BFDBFE" />
  <rect x="370" y="180" width="30" height="40" rx="2" fill="#BFDBFE" />
  
  <rect x="90" y="230" width="30" height="40" rx="2" fill="#BFDBFE" />
  <rect x="130" y="230" width="30" height="40" rx="2" fill="#BFDBFE" />
  <rect x="170" y="230" width="30" height="40" rx="2" fill="#BFDBFE" />
  <rect x="210" y="230" width="30" height="40" rx="2" fill="#BFDBFE" />
  <rect x="250" y="230" width="30" height="40" rx="2" fill="#BFDBFE" />
  <rect x="290" y="230" width="30" height="40" rx="2" fill="#BFDBFE" />
  <rect x="330" y="230" width="30" height="40" rx="2" fill="#BFDBFE" />
  <rect x="370" y="230" width="30" height="40" rx="2" fill="#BFDBFE" />
  
  <!-- Municipal Building -->
  <rect x="150" y="50" width="200" height="300" rx="8" fill="#1E3A8A" />
  
  <!-- Building Entrance -->
  <rect x="210" y="270" width="80" height="80" rx="5" fill="#2563EB" />
  <rect x="230" y="290" width="40" height="60" rx="3" fill="#93C5FD" />
  
  <!-- Windows -->
  <rect x="170" y="80" width="40" height="50" rx="3" fill="#DBEAFE" />
  <rect x="230" y="80" width="40" height="50" rx="3" fill="#DBEAFE" />
  <rect x="290" y="80" width="40" height="50" rx="3" fill="#DBEAFE" />
  
  <rect x="170" y="140" width="40" height="50" rx="3" fill="#DBEAFE" />
  <rect x="230" y="140" width="40" height="50" rx="3" fill="#DBEAFE" />
  <rect x="290" y="140" width="40" height="50" rx="3" fill="#DBEAFE" />
  
  <rect x="170" y="200" width="40" height="50" rx="3" fill="#DBEAFE" />
  <rect x="290" y="200" width="40" height="50" rx="3" fill="#DBEAFE" />
  
  <!-- Municipal Building Flag -->
  <rect x="240" y="30" width="5" height="50" fill="#94A3B8" />
  <rect x="245" y="30" width="25" height="15" fill="#EF4444" />
  
  <!-- Digital documents -->
  <g transform="translate(80, 150) rotate(-15)">
    <rect width="80" height="100" rx="5" fill="#F1F5F9" stroke="#CBD5E1" stroke-width="2" />
    <rect x="10" y="15" width="60" height="5" rx="2" fill="#60A5FA" />
    <rect x="10" y="25" width="40" height="5" rx="2" fill="#60A5FA" />
    <rect x="10" y="45" width="60" height="5" rx="2" fill="#64748B" />
    <rect x="10" y="55" width="50" height="5" rx="2" fill="#64748B" />
    <rect x="10" y="65" width="55" height="5" rx="2" fill="#64748B" />
    <rect x="50" y="85" width="20" height="8" rx="4" fill="#2563EB" />
  </g>
  
  <g transform="translate(400, 170) rotate(10)">
    <rect width="80" height="100" rx="5" fill="#F1F5F9" stroke="#CBD5E1" stroke-width="2" />
    <rect x="10" y="15" width="60" height="5" rx="2" fill="#10B981" />
    <rect x="10" y="25" width="40" height="5" rx="2" fill="#10B981" />
    <rect x="10" y="45" width="60" height="5" rx="2" fill="#64748B" />
    <rect x="10" y="55" width="50" height="5" rx="2" fill="#64748B" />
    <rect x="10" y="65" width="55" height="5" rx="2" fill="#64748B" />
    <rect x="50" y="85" width="20" height="8" rx="4" fill="#059669" />
  </g>
  
  <!-- People -->
  <g transform="translate(360, 330)">
    <circle cx="10" cy="10" r="8" fill="#1D4ED8" />
    <rect x="7" y="20" width="6" height="15" rx="2" fill="#1D4ED8" />
    <rect x="0" y="25" width="20" height="6" rx="2" fill="#1D4ED8" />
  </g>
  
  <g transform="translate(390, 320)">
    <circle cx="10" cy="10" r="8" fill="#9333EA" />
    <rect x="7" y="20" width="6" height="15" rx="2" fill="#9333EA" />
    <rect x="0" y="25" width="20" height="6" rx="2" fill="#9333EA" />
  </g>
  
  <g transform="translate(120, 330)">
    <circle cx="10" cy="10" r="8" fill="#0369A1" />
    <rect x="7" y="20" width="6" height="15" rx="2" fill="#0369A1" />
    <rect x="0" y="25" width="20" height="6" rx="2" fill="#0369A1" />
  </g>
  
  <!-- PNP Badge -->
  <circle cx="250" cy="190" r="30" fill="#FFFFFF" />
  <path d="M250 160 L270 190 L250 220 L230 190 Z" fill="#0038A8" />
  <circle cx="250" cy="190" r="15" fill="#FFFFFF" />
  <text x="250" y="195" text-anchor="middle" font-family="Arial" font-weight="bold" font-size="14" fill="#0038A8">PNP</text>
</svg> 